<?xml version="1.0" encoding="utf-8"?>
<!-- Generator: Adobe Illustrator 24.0.1, SVG Export Plug-In . SVG Version: 6.00 Build 0)  -->
<svg version="1.1" id="Layer_1" xmlns="http://www.w3.org/2000/svg" xmlns:xlink="http://www.w3.org/1999/xlink" x="0px" y="0px"
	 viewBox="0 0 64 36.6" style="enable-background:new 0 0 64 36.6;" xml:space="preserve">
<style type="text/css">
	.st0{fill:#C4C4C4;}
	.st1{fill:#F16566;}
</style>
<g>
	<g>
		<path class="st0" d="M32,29.1c-5.6,4-13.5,5.2-19.8,1.8C8,28.7,4.8,24.1,3,19.9c1.2,5.4,4.6,10.3,9.8,13c7.5,4,16.1,2.2,21-3.9
			C32.9,28.8,32.9,29.2,32,29.1z"/>
		<g>
			<path class="st1" d="M39.2,26.6L59.4,7.4c1.2-1.2,2.2-4,1.2-5c-1.1-1.1-3.8,0-5,1.2L36.3,23.7L39.2,26.6z"/>
			<g>
				<g>
					<path class="st1" d="M48.3,11.3c-0.8-0.3-16-5.2-16-5.2l-4.2,3.5l14.3,7.9L48.3,11.3z"/>
					<path class="st1" d="M39.1,12.1c-0.7,0.7-2,0.7-2.8-0.1l0,0c-0.8-0.8-0.9-2.1-0.1-2.8l3.2-3.2c0.7-0.7,2-0.7,2.8,0.1l0,0
						c0.8,0.8,0.9,2.1,0.1,2.8L39.1,12.1z"/>
				</g>
				<g>
					<path class="st1" d="M51.6,14.5c0.3,0.8,5.2,16,5.2,16l-3.5,4.2l-7.9-14.3L51.6,14.5z"/>
					<path class="st1" d="M50.8,23.8c-0.7,0.7-0.7,2,0.1,2.8l0,0c0.8,0.8,2.1,0.9,2.8,0.1l3.2-3.2c0.7-0.7,0.7-2-0.1-2.8l0,0
						c-0.8-0.8-2.1-0.9-2.8-0.1L50.8,23.8z"/>
				</g>
			</g>
			<path class="st1" d="M33.7,29.9c-0.2,0.2-0.5,0.2-0.7,0l0,0c-0.2-0.2-0.2-0.5,0-0.7l5.9-5.9c0.2-0.2,0.5-0.2,0.7,0l0,0
				c0.2,0.2,0.2,0.5,0,0.7L33.7,29.9z"/>
			<g>
				<path class="st1" d="M39.6,22.9c-0.3,0.1-7.9,0.6-7.9,0.6l-3,2.9l6.3,1.3L39.6,22.9z"/>
				<path class="st1" d="M39.7,23.5c0,0.3-0.6,7.9-0.6,7.9l-2.9,3L35,28.1L39.7,23.5z"/>
			</g>
		</g>
	</g>
</g>
</svg>
